<svg width="22" height="19" xmlns="http://www.w3.org/2000/svg"><path d="M16.6 17.8c-.3 0-.7 0-1-.1-1.3-.2-2.6-.5-3.8-1.1-1.9-.8-3.6-1.9-5.1-3.2C4.8 11.8 3.2 10 2 7.7c-.4-.8-.7-1.6-.8-2.5-.2-.9 0-1.8.6-2.5.5-.6 1-1.1 1.5-1.7.8-.8 1.2-.5 2.1.2 1 .7 1.9 1.5 2.9 2.3.7.6 1.3 1 .3 2.4-.4.5-.3.4-.7 1 0 0-.6.8-.7.9 1.5 2.1 3.5 3.7 5.9 4.7 0 0 1.7-2.1 1.9-2.2.9-.6 1.3-.3 1.9.1l3 2.4c.7.6 1 1.2.5 1.9s-.8 1.3-1.4 2c-.4.5-.9.8-1.5.9 0 0-.1 0-.1.1l-.8.1z" stroke="#000" fill="none" fill-rule="evenodd" stroke-linecap="round" stroke-linejoin="round"/></svg>