<?xml version="1.0" encoding="utf-8"?>
<!-- Generator: Adobe Illustrator 26.0.2, SVG Export Plug-In . SVG Version: 6.00 Build 0)  -->
<svg version="1.1" id="Layer_1" xmlns="http://www.w3.org/2000/svg" xmlns:xlink="http://www.w3.org/1999/xlink" x="0px" y="0px"
	 viewBox="0 0 432 468" style="enable-background:new 0 0 432 468;" xml:space="preserve">
<style type="text/css">
	.st0{fill:#FFFFFF;}
</style>
<path class="st0" d="M218.37,32.33c106.9,1.15,201.82,88.39,199.79,206.59c-1.87,108.73-94.29,198.36-204.04,196.91
	c-112.1-1.48-202.44-93-199.9-205.9C16.85,112.47,112.78,30.23,218.37,32.33z M135.16,153.31c-7.74,22.64-12.25,46.08-13.05,70.22
	c28.79,0,56.86,0,84.86,0c0-21.81,0-43.22,0-64.28C183.02,157.27,159.48,155.32,135.16,153.31z M309.29,223.73
	c-0.77-23.83-4.85-46.5-12.35-68.54c-0.36-1.05-3.11-1.98-4.64-1.84c-12.27,1.08-24.5,2.58-36.77,3.65
	c-9.25,0.81-18.54,1.2-27.93,1.78c0,21.84,0,43.26,0,64.94C254.79,223.73,281.7,223.73,309.29,223.73z M397.47,223.62
	c0.12-0.78,0.29-1.27,0.26-1.74c-2.01-29.75-10.84-57.33-26.28-82.84c-1.75-2.88-3.32-3.16-6.38-2.25
	c-11.62,3.45-23.34,6.58-35.05,9.72c-4.25,1.14-8.59,1.99-13.29,3.06c7.9,24.36,12.24,48.8,13.32,74.04
	C352.71,223.62,375.08,223.62,397.47,223.62z M115.07,150.13c-16.93-4.75-33.21-9.41-49.58-13.73c-1.26-0.33-3.79,1.4-4.69,2.82
	c-10.19,16.18-17.59,33.6-21.71,52.26c-2.31,10.46-3.65,21.13-5.5,32.16c23.47,0,45.69,0,68.32,0
	C102.99,198.38,107.35,173.94,115.07,150.13z M206.95,244.38c-28.57,0-56.62,0-84.99,0c1.04,22.58,5.17,44.17,11.72,64.91
	c24.66-2.14,48.79-4.23,73.27-6.36C206.95,283.81,206.95,264.25,206.95,244.38z M331.25,244.08c-3.95,23.51-7.8,46.39-11.63,69.21
	c16.83,4.53,34.57,9.31,52.63,14.17c15.2-25.54,23.9-53.2,25.53-83.38C374.98,244.08,352.71,244.08,331.25,244.08z M34.3,244.08
	c1.9,30.46,10.51,58.2,25.65,83.2c18.27-4.96,35.84-9.74,52.35-14.22c-3.99-23.09-7.93-45.93-11.92-68.98
	C79.16,244.08,57.04,244.08,34.3,244.08z M227.68,303.17c23.59,2.07,46.87,4.12,70.16,6.17c6.42-17.66,12.25-50.99,11.33-65.2
	c-27.04,0-54.11,0-81.49,0C227.68,264.06,227.68,283.78,227.68,303.17z M206.84,413.58c0.41-2.09,0.58-2.58,0.58-3.06
	c0.02-27.5-0.01-55,0.1-82.5c0.01-3.25-1.38-3.94-4.21-3.82c-8.32,0.36-16.68,0.26-24.97,0.91c-12.24,0.97-24.44,2.45-37.75,3.82
	c4.42,8.75,8.2,16.68,12.38,24.4c10.38,19.17,22.71,36.91,39.62,50.97C196.72,407.74,201.62,410.23,206.84,413.58z M227.93,323.46
	c0,29.84,0,58.53,0,88.44c31.67-20.25,47.5-50.96,63.47-83.34C269.61,326.82,249.08,325.16,227.93,323.46z M206.78,54.44
	c-18.82,4.86-59.97,56.82-62.99,79.93c20.99,1.56,41.94,3.12,62.99,4.69C206.78,109.93,206.78,82.22,206.78,54.44z M228.3,54.87
	c0,28.53,0,55.7,0,84.19c20.48-1.55,40.56-3.08,61.74-4.68C275.05,102.58,257.67,74.81,228.3,54.87z M359.95,344.03
	c-16.12-3.88-31.39-7.64-46.74-11.07c-1.09-0.24-3.4,1.55-3.97,2.9c-11.08,26.45-25.33,50.88-45.17,71.82
	c-0.24,0.25-0.22,0.75-0.34,1.24C297.91,401.65,338.4,375.25,359.95,344.03z M166.74,409.45c-0.05-1.03,0.01-1.26-0.08-1.36
	c-1.75-2-3.53-3.97-5.27-5.99c-16.75-19.51-29.18-41.62-38.95-65.27c-1.31-3.17-2.6-4.4-6.2-3.41c-7.53,2.06-15.23,3.49-22.78,5.45
	c-7,1.82-13.9,3.99-21.46,6.19C97.04,377.01,128.55,397.66,166.74,409.45z M357.76,119.13c-25.53-29.9-55.65-49.68-92.9-60.36
	c4.81,5.74,9.14,10.58,13.1,15.7c12.27,15.88,21.84,33.35,30.09,51.59c0.72,1.59,3,3.91,4.07,3.67
	C326.99,126.52,341.77,122.91,357.76,119.13z M121.25,130.26c7.03-13.22,12.89-25.76,20.14-37.44c7.27-11.7,15.92-22.55,24.17-34.05
	c-35.79,11.08-65.82,30.41-90.54,60.17C91.22,122.91,106.34,126.61,121.25,130.26z"/>
</svg>
